solid OpenSCAD_Model
  facet normal 0.998027 0.06279 0
    outer loop
      vertex 0.06256 0 4.14
      vertex 0.0620667 0.00784085 0.5
      vertex 0.0620667 0.00784085 4.14
    endloop
  endfacet
  facet normal 0.998027 0.06279 0
    outer loop
      vertex 0.0620667 0.00784085 0.5
      vertex 0.06256 0 4.14
      vertex 0.06256 0 0.5
    endloop
  endfacet
  facet normal 0.982288 0.187378 0
    outer loop
      vertex 0.0620667 0.00784085 4.14
      vertex 0.0605946 0.015558 0.5
      vertex 0.0605946 0.015558 4.14
    endloop
  endfacet
  facet normal 0.982288 0.187378 0
    outer loop
      vertex 0.0605946 0.015558 0.5
      vertex 0.0620667 0.00784085 4.14
      vertex 0.0620667 0.00784085 0.5
    endloop
  endfacet
  facet normal 0.951055 0.309021 0
    outer loop
      vertex 0.0605946 0.015558 4.14
      vertex 0.0581668 0.0230299 0.5
      vertex 0.0581668 0.0230299 4.14
    endloop
  endfacet
  facet normal 0.951055 0.309021 0
    outer loop
      vertex 0.0581668 0.0230299 0.5
      vertex 0.0605946 0.015558 4.14
      vertex 0.0605946 0.015558 0.5
    endloop
  endfacet
  facet normal 0.904825 0.425784 0
    outer loop
      vertex 0.0581668 0.0230299 4.14
      vertex 0.0548217 0.0301385 0.5
      vertex 0.0548217 0.0301385 4.14
    endloop
  endfacet
  facet normal 0.904825 0.425784 0
    outer loop
      vertex 0.0548217 0.0301385 0.5
      vertex 0.0581668 0.0230299 4.14
      vertex 0.0581668 0.0230299 0.5
    endloop
  endfacet
  facet normal 0.844329 0.535825 0
    outer loop
      vertex 0.0548217 0.0301385 4.14
      vertex 0.0506121 0.0367718 0.5
      vertex 0.0506121 0.0367718 4.14
    endloop
  endfacet
  facet normal 0.844329 0.535825 0
    outer loop
      vertex 0.0506121 0.0367718 0.5
      vertex 0.0548217 0.0301385 4.14
      vertex 0.0548217 0.0301385 0.5
    endloop
  endfacet
  facet normal 0.770519 0.637417 0
    outer loop
      vertex 0.0506121 0.0367718 4.14
      vertex 0.0456043 0.0428253 0.5
      vertex 0.0456043 0.0428253 4.14
    endloop
  endfacet
  facet normal 0.770519 0.637417 0
    outer loop
      vertex 0.0456043 0.0428253 0.5
      vertex 0.0506121 0.0367718 4.14
      vertex 0.0506121 0.0367718 0.5
    endloop
  endfacet
  facet normal 0.68454 0.728975 -0
    outer loop
      vertex 0.0456043 0.0428253 0.5
      vertex 0.0398772 0.0482033 4.14
      vertex 0.0456043 0.0428253 4.14
    endloop
  endfacet
  facet normal 0.68454 0.728975 0
    outer loop
      vertex 0.0398772 0.0482033 4.14
      vertex 0.0456043 0.0428253 0.5
      vertex 0.0398772 0.0482033 0.5
    endloop
  endfacet
  facet normal 0.587791 0.809013 -0
    outer loop
      vertex 0.0398772 0.0482033 0.5
      vertex 0.0335213 0.0528212 4.14
      vertex 0.0398772 0.0482033 4.14
    endloop
  endfacet
  facet normal 0.587791 0.809013 0
    outer loop
      vertex 0.0335213 0.0528212 4.14
      vertex 0.0398772 0.0482033 0.5
      vertex 0.0335213 0.0528212 0.5
    endloop
  endfacet
  facet normal 0.481755 0.876306 -0
    outer loop
      vertex 0.0335213 0.0528212 0.5
      vertex 0.0266368 0.056606 4.14
      vertex 0.0335213 0.0528212 4.14
    endloop
  endfacet
  facet normal 0.481755 0.876306 0
    outer loop
      vertex 0.0266368 0.056606 4.14
      vertex 0.0335213 0.0528212 0.5
      vertex 0.0266368 0.056606 0.5
    endloop
  endfacet
  facet normal 0.368121 0.929778 -0
    outer loop
      vertex 0.0266368 0.056606 0.5
      vertex 0.0193321 0.0594981 4.14
      vertex 0.0266368 0.056606 4.14
    endloop
  endfacet
  facet normal 0.368121 0.929778 0
    outer loop
      vertex 0.0193321 0.0594981 4.14
      vertex 0.0266368 0.056606 0.5
      vertex 0.0193321 0.0594981 0.5
    endloop
  endfacet
  facet normal 0.248691 0.968583 -0
    outer loop
      vertex 0.0193321 0.0594981 0.5
      vertex 0.0117226 0.0614519 4.14
      vertex 0.0193321 0.0594981 4.14
    endloop
  endfacet
  facet normal 0.248691 0.968583 0
    outer loop
      vertex 0.0117226 0.0614519 4.14
      vertex 0.0193321 0.0594981 0.5
      vertex 0.0117226 0.0614519 0.5
    endloop
  endfacet
  facet normal 0.125338 0.992114 -0
    outer loop
      vertex 0.0117226 0.0614519 0.5
      vertex 0.00392817 0.0624366 4.14
      vertex 0.0117226 0.0614519 4.14
    endloop
  endfacet
  facet normal 0.125338 0.992114 0
    outer loop
      vertex 0.00392817 0.0624366 4.14
      vertex 0.0117226 0.0614519 0.5
      vertex 0.00392817 0.0624366 0.5
    endloop
  endfacet
  facet normal 0 1 -0
    outer loop
      vertex 0.00392817 0.0624366 0.5
      vertex -0.00392817 0.0624366 4.14
      vertex 0.00392817 0.0624366 4.14
    endloop
  endfacet
  facet normal 0 1 0
    outer loop
      vertex -0.00392817 0.0624366 4.14
      vertex 0.00392817 0.0624366 0.5
      vertex -0.00392817 0.0624366 0.5
    endloop
  endfacet
  facet normal -0.125338 0.992114 0
    outer loop
      vertex -0.00392817 0.0624366 0.5
      vertex -0.0117226 0.0614519 4.14
      vertex -0.00392817 0.0624366 4.14
    endloop
  endfacet
  facet normal -0.125338 0.992114 0
    outer loop
      vertex -0.0117226 0.0614519 4.14
      vertex -0.00392817 0.0624366 0.5
      vertex -0.0117226 0.0614519 0.5
    endloop
  endfacet
  facet normal -0.248691 0.968583 0
    outer loop
      vertex -0.0117226 0.0614519 0.5
      vertex -0.0193321 0.0594981 4.14
      vertex -0.0117226 0.0614519 4.14
    endloop
  endfacet
  facet normal -0.248691 0.968583 0
    outer loop
      vertex -0.0193321 0.0594981 4.14
      vertex -0.0117226 0.0614519 0.5
      vertex -0.0193321 0.0594981 0.5
    endloop
  endfacet
  facet normal -0.368121 0.929778 0
    outer loop
      vertex -0.0193321 0.0594981 0.5
      vertex -0.0266368 0.056606 4.14
      vertex -0.0193321 0.0594981 4.14
    endloop
  endfacet
  facet normal -0.368121 0.929778 0
    outer loop
      vertex -0.0266368 0.056606 4.14
      vertex -0.0193321 0.0594981 0.5
      vertex -0.0266368 0.056606 0.5
    endloop
  endfacet
  facet normal -0.481755 0.876306 0
    outer loop
      vertex -0.0266368 0.056606 0.5
      vertex -0.0335213 0.0528212 4.14
      vertex -0.0266368 0.056606 4.14
    endloop
  endfacet
  facet normal -0.481755 0.876306 0
    outer loop
      vertex -0.0335213 0.0528212 4.14
      vertex -0.0266368 0.056606 0.5
      vertex -0.0335213 0.0528212 0.5
    endloop
  endfacet
  facet normal -0.587791 0.809013 0
    outer loop
      vertex -0.0335213 0.0528212 0.5
      vertex -0.0398772 0.0482033 4.14
      vertex -0.0335213 0.0528212 4.14
    endloop
  endfacet
  facet normal -0.587791 0.809013 0
    outer loop
      vertex -0.0398772 0.0482033 4.14
      vertex -0.0335213 0.0528212 0.5
      vertex -0.0398772 0.0482033 0.5
    endloop
  endfacet
  facet normal -0.68454 0.728975 0
    outer loop
      vertex -0.0398772 0.0482033 0.5
      vertex -0.0456043 0.0428253 4.14
      vertex -0.0398772 0.0482033 4.14
    endloop
  endfacet
  facet normal -0.68454 0.728975 0
    outer loop
      vertex -0.0456043 0.0428253 4.14
      vertex -0.0398772 0.0482033 0.5
      vertex -0.0456043 0.0428253 0.5
    endloop
  endfacet
  facet normal -0.770519 0.637417 0
    outer loop
      vertex -0.0506121 0.0367718 0.5
      vertex -0.0456043 0.0428253 4.14
      vertex -0.0456043 0.0428253 0.5
    endloop
  endfacet
  facet normal -0.770519 0.637417 0
    outer loop
      vertex -0.0456043 0.0428253 4.14
      vertex -0.0506121 0.0367718 0.5
      vertex -0.0506121 0.0367718 4.14
    endloop
  endfacet
  facet normal -0.844329 0.535825 0
    outer loop
      vertex -0.0548217 0.0301385 0.5
      vertex -0.0506121 0.0367718 4.14
      vertex -0.0506121 0.0367718 0.5
    endloop
  endfacet
  facet normal -0.844329 0.535825 0
    outer loop
      vertex -0.0506121 0.0367718 4.14
      vertex -0.0548217 0.0301385 0.5
      vertex -0.0548217 0.0301385 4.14
    endloop
  endfacet
  facet normal -0.904825 0.425784 0
    outer loop
      vertex -0.0581668 0.0230299 0.5
      vertex -0.0548217 0.0301385 4.14
      vertex -0.0548217 0.0301385 0.5
    endloop
  endfacet
  facet normal -0.904825 0.425784 0
    outer loop
      vertex -0.0548217 0.0301385 4.14
      vertex -0.0581668 0.0230299 0.5
      vertex -0.0581668 0.0230299 4.14
    endloop
  endfacet
  facet normal -0.951055 0.309021 0
    outer loop
      vertex -0.0605946 0.015558 0.5
      vertex -0.0581668 0.0230299 4.14
      vertex -0.0581668 0.0230299 0.5
    endloop
  endfacet
  facet normal -0.951055 0.309021 0
    outer loop
      vertex -0.0581668 0.0230299 4.14
      vertex -0.0605946 0.015558 0.5
      vertex -0.0605946 0.015558 4.14
    endloop
  endfacet
  facet normal -0.982288 0.187378 0
    outer loop
      vertex -0.0620667 0.00784085 0.5
      vertex -0.0605946 0.015558 4.14
      vertex -0.0605946 0.015558 0.5
    endloop
  endfacet
  facet normal -0.982288 0.187378 0
    outer loop
      vertex -0.0605946 0.015558 4.14
      vertex -0.0620667 0.00784085 0.5
      vertex -0.0620667 0.00784085 4.14
    endloop
  endfacet
  facet normal -0.998027 0.06279 0
    outer loop
      vertex -0.06256 0 0.5
      vertex -0.0620667 0.00784085 4.14
      vertex -0.0620667 0.00784085 0.5
    endloop
  endfacet
  facet normal -0.998027 0.06279 0
    outer loop
      vertex -0.0620667 0.00784085 4.14
      vertex -0.06256 0 0.5
      vertex -0.06256 0 4.14
    endloop
  endfacet
  facet normal -0.998027 -0.06279 0
    outer loop
      vertex -0.0620667 -0.00784085 0.5
      vertex -0.06256 0 4.14
      vertex -0.06256 0 0.5
    endloop
  endfacet
  facet normal -0.998027 -0.06279 0
    outer loop
      vertex -0.06256 0 4.14
      vertex -0.0620667 -0.00784085 0.5
      vertex -0.0620667 -0.00784085 4.14
    endloop
  endfacet
  facet normal -0.982288 -0.187378 0
    outer loop
      vertex -0.0605946 -0.015558 0.5
      vertex -0.0620667 -0.00784085 4.14
      vertex -0.0620667 -0.00784085 0.5
    endloop
  endfacet
  facet normal -0.982288 -0.187378 0
    outer loop
      vertex -0.0620667 -0.00784085 4.14
      vertex -0.0605946 -0.015558 0.5
      vertex -0.0605946 -0.015558 4.14
    endloop
  endfacet
  facet normal -0.951055 -0.309021 0
    outer loop
      vertex -0.0581668 -0.0230299 0.5
      vertex -0.0605946 -0.015558 4.14
      vertex -0.0605946 -0.015558 0.5
    endloop
  endfacet
  facet normal -0.951055 -0.309021 0
    outer loop
      vertex -0.0605946 -0.015558 4.14
      vertex -0.0581668 -0.0230299 0.5
      vertex -0.0581668 -0.0230299 4.14
    endloop
  endfacet
  facet normal -0.904825 -0.425784 0
    outer loop
      vertex -0.0548217 -0.0301385 0.5
      vertex -0.0581668 -0.0230299 4.14
      vertex -0.0581668 -0.0230299 0.5
    endloop
  endfacet
  facet normal -0.904825 -0.425784 0
    outer loop
      vertex -0.0581668 -0.0230299 4.14
      vertex -0.0548217 -0.0301385 0.5
      vertex -0.0548217 -0.0301385 4.14
    endloop
  endfacet
  facet normal -0.844329 -0.535825 0
    outer loop
      vertex -0.0506121 -0.0367718 0.5
      vertex -0.0548217 -0.0301385 4.14
      vertex -0.0548217 -0.0301385 0.5
    endloop
  endfacet
  facet normal -0.844329 -0.535825 0
    outer loop
      vertex -0.0548217 -0.0301385 4.14
      vertex -0.0506121 -0.0367718 0.5
      vertex -0.0506121 -0.0367718 4.14
    endloop
  endfacet
  facet normal -0.770519 -0.637417 0
    outer loop
      vertex -0.0456043 -0.0428253 0.5
      vertex -0.0506121 -0.0367718 4.14
      vertex -0.0506121 -0.0367718 0.5
    endloop
  endfacet
  facet normal -0.770519 -0.637417 0
    outer loop
      vertex -0.0506121 -0.0367718 4.14
      vertex -0.0456043 -0.0428253 0.5
      vertex -0.0456043 -0.0428253 4.14
    endloop
  endfacet
  facet normal -0.68454 -0.728975 0
    outer loop
      vertex -0.0456043 -0.0428253 0.5
      vertex -0.0398772 -0.0482033 4.14
      vertex -0.0456043 -0.0428253 4.14
    endloop
  endfacet
  facet normal -0.68454 -0.728975 -0
    outer loop
      vertex -0.0398772 -0.0482033 4.14
      vertex -0.0456043 -0.0428253 0.5
      vertex -0.0398772 -0.0482033 0.5
    endloop
  endfacet
  facet normal -0.587791 -0.809013 0
    outer loop
      vertex -0.0398772 -0.0482033 0.5
      vertex -0.0335213 -0.0528212 4.14
      vertex -0.0398772 -0.0482033 4.14
    endloop
  endfacet
  facet normal -0.587791 -0.809013 -0
    outer loop
      vertex -0.0335213 -0.0528212 4.14
      vertex -0.0398772 -0.0482033 0.5
      vertex -0.0335213 -0.0528212 0.5
    endloop
  endfacet
  facet normal -0.481755 -0.876306 0
    outer loop
      vertex -0.0335213 -0.0528212 0.5
      vertex -0.0266368 -0.056606 4.14
      vertex -0.0335213 -0.0528212 4.14
    endloop
  endfacet
  facet normal -0.481755 -0.876306 -0
    outer loop
      vertex -0.0266368 -0.056606 4.14
      vertex -0.0335213 -0.0528212 0.5
      vertex -0.0266368 -0.056606 0.5
    endloop
  endfacet
  facet normal -0.368121 -0.929778 0
    outer loop
      vertex -0.0266368 -0.056606 0.5
      vertex -0.0193321 -0.0594981 4.14
      vertex -0.0266368 -0.056606 4.14
    endloop
  endfacet
  facet normal -0.368121 -0.929778 -0
    outer loop
      vertex -0.0193321 -0.0594981 4.14
      vertex -0.0266368 -0.056606 0.5
      vertex -0.0193321 -0.0594981 0.5
    endloop
  endfacet
  facet normal -0.248691 -0.968583 0
    outer loop
      vertex -0.0193321 -0.0594981 0.5
      vertex -0.0117226 -0.0614519 4.14
      vertex -0.0193321 -0.0594981 4.14
    endloop
  endfacet
  facet normal -0.248691 -0.968583 -0
    outer loop
      vertex -0.0117226 -0.0614519 4.14
      vertex -0.0193321 -0.0594981 0.5
      vertex -0.0117226 -0.0614519 0.5
    endloop
  endfacet
  facet normal -0.125338 -0.992114 0
    outer loop
      vertex -0.0117226 -0.0614519 0.5
      vertex -0.00392817 -0.0624366 4.14
      vertex -0.0117226 -0.0614519 4.14
    endloop
  endfacet
  facet normal -0.125338 -0.992114 -0
    outer loop
      vertex -0.00392817 -0.0624366 4.14
      vertex -0.0117226 -0.0614519 0.5
      vertex -0.00392817 -0.0624366 0.5
    endloop
  endfacet
  facet normal 0 -1 0
    outer loop
      vertex -0.00392817 -0.0624366 0.5
      vertex 0.00392817 -0.0624366 4.14
      vertex -0.00392817 -0.0624366 4.14
    endloop
  endfacet
  facet normal 0 -1 -0
    outer loop
      vertex 0.00392817 -0.0624366 4.14
      vertex -0.00392817 -0.0624366 0.5
      vertex 0.00392817 -0.0624366 0.5
    endloop
  endfacet
  facet normal 0.125338 -0.992114 0
    outer loop
      vertex 0.00392817 -0.0624366 0.5
      vertex 0.0117226 -0.0614519 4.14
      vertex 0.00392817 -0.0624366 4.14
    endloop
  endfacet
  facet normal 0.125338 -0.992114 0
    outer loop
      vertex 0.0117226 -0.0614519 4.14
      vertex 0.00392817 -0.0624366 0.5
      vertex 0.0117226 -0.0614519 0.5
    endloop
  endfacet
  facet normal 0.248691 -0.968583 0
    outer loop
      vertex 0.0117226 -0.0614519 0.5
      vertex 0.0193321 -0.0594981 4.14
      vertex 0.0117226 -0.0614519 4.14
    endloop
  endfacet
  facet normal 0.248691 -0.968583 0
    outer loop
      vertex 0.0193321 -0.0594981 4.14
      vertex 0.0117226 -0.0614519 0.5
      vertex 0.0193321 -0.0594981 0.5
    endloop
  endfacet
  facet normal 0.368121 -0.929778 0
    outer loop
      vertex 0.0193321 -0.0594981 0.5
      vertex 0.0266368 -0.056606 4.14
      vertex 0.0193321 -0.0594981 4.14
    endloop
  endfacet
  facet normal 0.368121 -0.929778 0
    outer loop
      vertex 0.0266368 -0.056606 4.14
      vertex 0.0193321 -0.0594981 0.5
      vertex 0.0266368 -0.056606 0.5
    endloop
  endfacet
  facet normal 0.481755 -0.876306 0
    outer loop
      vertex 0.0266368 -0.056606 0.5
      vertex 0.0335213 -0.0528212 4.14
      vertex 0.0266368 -0.056606 4.14
    endloop
  endfacet
  facet normal 0.481755 -0.876306 0
    outer loop
      vertex 0.0335213 -0.0528212 4.14
      vertex 0.0266368 -0.056606 0.5
      vertex 0.0335213 -0.0528212 0.5
    endloop
  endfacet
  facet normal 0.587791 -0.809013 0
    outer loop
      vertex 0.0335213 -0.0528212 0.5
      vertex 0.0398772 -0.0482033 4.14
      vertex 0.0335213 -0.0528212 4.14
    endloop
  endfacet
  facet normal 0.587791 -0.809013 0
    outer loop
      vertex 0.0398772 -0.0482033 4.14
      vertex 0.0335213 -0.0528212 0.5
      vertex 0.0398772 -0.0482033 0.5
    endloop
  endfacet
  facet normal 0.68454 -0.728975 0
    outer loop
      vertex 0.0398772 -0.0482033 0.5
      vertex 0.0456043 -0.0428253 4.14
      vertex 0.0398772 -0.0482033 4.14
    endloop
  endfacet
  facet normal 0.68454 -0.728975 0
    outer loop
      vertex 0.0456043 -0.0428253 4.14
      vertex 0.0398772 -0.0482033 0.5
      vertex 0.0456043 -0.0428253 0.5
    endloop
  endfacet
  facet normal 0.770519 -0.637417 0
    outer loop
      vertex 0.0456043 -0.0428253 4.14
      vertex 0.0506121 -0.0367718 0.5
      vertex 0.0506121 -0.0367718 4.14
    endloop
  endfacet
  facet normal 0.770519 -0.637417 0
    outer loop
      vertex 0.0506121 -0.0367718 0.5
      vertex 0.0456043 -0.0428253 4.14
      vertex 0.0456043 -0.0428253 0.5
    endloop
  endfacet
  facet normal 0.844329 -0.535825 0
    outer loop
      vertex 0.0506121 -0.0367718 4.14
      vertex 0.0548217 -0.0301385 0.5
      vertex 0.0548217 -0.0301385 4.14
    endloop
  endfacet
  facet normal 0.844329 -0.535825 0
    outer loop
      vertex 0.0548217 -0.0301385 0.5
      vertex 0.0506121 -0.0367718 4.14
      vertex 0.0506121 -0.0367718 0.5
    endloop
  endfacet
  facet normal 0.904825 -0.425784 0
    outer loop
      vertex 0.0548217 -0.0301385 4.14
      vertex 0.0581668 -0.0230299 0.5
      vertex 0.0581668 -0.0230299 4.14
    endloop
  endfacet
  facet normal 0.904825 -0.425784 0
    outer loop
      vertex 0.0581668 -0.0230299 0.5
      vertex 0.0548217 -0.0301385 4.14
      vertex 0.0548217 -0.0301385 0.5
    endloop
  endfacet
  facet normal 0.951055 -0.309021 0
    outer loop
      vertex 0.0581668 -0.0230299 4.14
      vertex 0.0605946 -0.015558 0.5
      vertex 0.0605946 -0.015558 4.14
    endloop
  endfacet
  facet normal 0.951055 -0.309021 0
    outer loop
      vertex 0.0605946 -0.015558 0.5
      vertex 0.0581668 -0.0230299 4.14
      vertex 0.0581668 -0.0230299 0.5
    endloop
  endfacet
  facet normal 0.982288 -0.187378 0
    outer loop
      vertex 0.0605946 -0.015558 4.14
      vertex 0.0620667 -0.00784085 0.5
      vertex 0.0620667 -0.00784085 4.14
    endloop
  endfacet
  facet normal 0.982288 -0.187378 0
    outer loop
      vertex 0.0620667 -0.00784085 0.5
      vertex 0.0605946 -0.015558 4.14
      vertex 0.0605946 -0.015558 0.5
    endloop
  endfacet
  facet normal 0.998027 -0.06279 0
    outer loop
      vertex 0.0620667 -0.00784085 4.14
      vertex 0.06256 0 0.5
      vertex 0.06256 0 4.14
    endloop
  endfacet
  facet normal 0.998027 -0.06279 0
    outer loop
      vertex 0.06256 0 0.5
      vertex 0.0620667 -0.00784085 4.14
      vertex 0.0620667 -0.00784085 0.5
    endloop
  endfacet
  facet normal 0 0 -1
    outer loop
      vertex 0.0620667 -0.00784085 0.5
      vertex 0.0620667 0.00784085 0.5
      vertex 0.06256 0 0.5
    endloop
  endfacet
  facet normal 0 0 -1
    outer loop
      vertex 0.0605946 -0.015558 0.5
      vertex 0.0620667 0.00784085 0.5
      vertex 0.0620667 -0.00784085 0.5
    endloop
  endfacet
  facet normal 0 0 -1
    outer loop
      vertex 0.0605946 -0.015558 0.5
      vertex 0.0605946 0.015558 0.5
      vertex 0.0620667 0.00784085 0.5
    endloop
  endfacet
  facet normal 0 0 -1
    outer loop
      vertex 0.0581668 -0.0230299 0.5
      vertex 0.0605946 0.015558 0.5
      vertex 0.0605946 -0.015558 0.5
    endloop
  endfacet
  facet normal 0 0 -1
    outer loop
      vertex 0.0581668 -0.0230299 0.5
      vertex 0.0581668 0.0230299 0.5
      vertex 0.0605946 0.015558 0.5
    endloop
  endfacet
  facet normal 0 0 -1
    outer loop
      vertex 0.0548217 -0.0301385 0.5
      vertex 0.0581668 0.0230299 0.5
      vertex 0.0581668 -0.0230299 0.5
    endloop
  endfacet
  facet normal 0 0 -1
    outer loop
      vertex 0.0548217 -0.0301385 0.5
      vertex 0.0548217 0.0301385 0.5
      vertex 0.0581668 0.0230299 0.5
    endloop
  endfacet
  facet normal 0 0 -1
    outer loop
      vertex 0.0506121 -0.0367718 0.5
      vertex 0.0548217 0.0301385 0.5
      vertex 0.0548217 -0.0301385 0.5
    endloop
  endfacet
  facet normal 0 0 -1
    outer loop
      vertex 0.0506121 -0.0367718 0.5
      vertex 0.0506121 0.0367718 0.5
      vertex 0.0548217 0.0301385 0.5
    endloop
  endfacet
  facet normal 0 0 -1
    outer loop
      vertex 0.0456043 -0.0428253 0.5
      vertex 0.0506121 0.0367718 0.5
      vertex 0.0506121 -0.0367718 0.5
    endloop
  endfacet
  facet normal 0 0 -1
    outer loop
      vertex 0.0456043 -0.0428253 0.5
      vertex 0.0456043 0.0428253 0.5
      vertex 0.0506121 0.0367718 0.5
    endloop
  endfacet
  facet normal 0 0 -1
    outer loop
      vertex 0.0398772 -0.0482033 0.5
      vertex 0.0456043 0.0428253 0.5
      vertex 0.0456043 -0.0428253 0.5
    endloop
  endfacet
  facet normal 0 0 -1
    outer loop
      vertex 0.0398772 -0.0482033 0.5
      vertex 0.0398772 0.0482033 0.5
      vertex 0.0456043 0.0428253 0.5
    endloop
  endfacet
  facet normal 0 0 -1
    outer loop
      vertex 0.0335213 -0.0528212 0.5
      vertex 0.0398772 0.0482033 0.5
      vertex 0.0398772 -0.0482033 0.5
    endloop
  endfacet
  facet normal 0 0 -1
    outer loop
      vertex 0.0335213 -0.0528212 0.5
      vertex 0.0335213 0.0528212 0.5
      vertex 0.0398772 0.0482033 0.5
    endloop
  endfacet
  facet normal 0 0 -1
    outer loop
      vertex 0.0266368 -0.056606 0.5
      vertex 0.0335213 0.0528212 0.5
      vertex 0.0335213 -0.0528212 0.5
    endloop
  endfacet
  facet normal 0 0 -1
    outer loop
      vertex 0.0266368 -0.056606 0.5
      vertex 0.0266368 0.056606 0.5
      vertex 0.0335213 0.0528212 0.5
    endloop
  endfacet
  facet normal 0 0 -1
    outer loop
      vertex 0.0193321 -0.0594981 0.5
      vertex 0.0266368 0.056606 0.5
      vertex 0.0266368 -0.056606 0.5
    endloop
  endfacet
  facet normal 0 0 -1
    outer loop
      vertex 0.0193321 -0.0594981 0.5
      vertex 0.0193321 0.0594981 0.5
      vertex 0.0266368 0.056606 0.5
    endloop
  endfacet
  facet normal 0 0 -1
    outer loop
      vertex 0.0117226 -0.0614519 0.5
      vertex 0.0193321 0.0594981 0.5
      vertex 0.0193321 -0.0594981 0.5
    endloop
  endfacet
  facet normal 0 0 -1
    outer loop
      vertex 0.0117226 -0.0614519 0.5
      vertex 0.0117226 0.0614519 0.5
      vertex 0.0193321 0.0594981 0.5
    endloop
  endfacet
  facet normal 0 0 -1
    outer loop
      vertex 0.00392817 -0.0624366 0.5
      vertex 0.0117226 0.0614519 0.5
      vertex 0.0117226 -0.0614519 0.5
    endloop
  endfacet
  facet normal 0 0 -1
    outer loop
      vertex 0.00392817 -0.0624366 0.5
      vertex 0.00392817 0.0624366 0.5
      vertex 0.0117226 0.0614519 0.5
    endloop
  endfacet
  facet normal 0 0 -1
    outer loop
      vertex -0.00392817 -0.0624366 0.5
      vertex 0.00392817 0.0624366 0.5
      vertex 0.00392817 -0.0624366 0.5
    endloop
  endfacet
  facet normal 0 0 -1
    outer loop
      vertex -0.00392817 -0.0624366 0.5
      vertex -0.00392817 0.0624366 0.5
      vertex 0.00392817 0.0624366 0.5
    endloop
  endfacet
  facet normal 0 0 -1
    outer loop
      vertex -0.0117226 -0.0614519 0.5
      vertex -0.00392817 0.0624366 0.5
      vertex -0.00392817 -0.0624366 0.5
    endloop
  endfacet
  facet normal 0 0 -1
    outer loop
      vertex -0.0117226 -0.0614519 0.5
      vertex -0.0117226 0.0614519 0.5
      vertex -0.00392817 0.0624366 0.5
    endloop
  endfacet
  facet normal 0 0 -1
    outer loop
      vertex -0.0193321 -0.0594981 0.5
      vertex -0.0117226 0.0614519 0.5
      vertex -0.0117226 -0.0614519 0.5
    endloop
  endfacet
  facet normal 0 0 -1
    outer loop
      vertex -0.0193321 -0.0594981 0.5
      vertex -0.0193321 0.0594981 0.5
      vertex -0.0117226 0.0614519 0.5
    endloop
  endfacet
  facet normal 0 0 -1
    outer loop
      vertex -0.0266368 -0.056606 0.5
      vertex -0.0193321 0.0594981 0.5
      vertex -0.0193321 -0.0594981 0.5
    endloop
  endfacet
  facet normal 0 0 -1
    outer loop
      vertex -0.0266368 -0.056606 0.5
      vertex -0.0266368 0.056606 0.5
      vertex -0.0193321 0.0594981 0.5
    endloop
  endfacet
  facet normal 0 0 -1
    outer loop
      vertex -0.0335213 -0.0528212 0.5
      vertex -0.0266368 0.056606 0.5
      vertex -0.0266368 -0.056606 0.5
    endloop
  endfacet
  facet normal 0 0 -1
    outer loop
      vertex -0.0335213 -0.0528212 0.5
      vertex -0.0335213 0.0528212 0.5
      vertex -0.0266368 0.056606 0.5
    endloop
  endfacet
  facet normal 0 0 -1
    outer loop
      vertex -0.0398772 -0.0482033 0.5
      vertex -0.0335213 0.0528212 0.5
      vertex -0.0335213 -0.0528212 0.5
    endloop
  endfacet
  facet normal 0 0 -1
    outer loop
      vertex -0.0398772 -0.0482033 0.5
      vertex -0.0398772 0.0482033 0.5
      vertex -0.0335213 0.0528212 0.5
    endloop
  endfacet
  facet normal 0 0 -1
    outer loop
      vertex -0.0456043 -0.0428253 0.5
      vertex -0.0398772 0.0482033 0.5
      vertex -0.0398772 -0.0482033 0.5
    endloop
  endfacet
  facet normal 0 0 -1
    outer loop
      vertex -0.0456043 -0.0428253 0.5
      vertex -0.0456043 0.0428253 0.5
      vertex -0.0398772 0.0482033 0.5
    endloop
  endfacet
  facet normal 0 0 -1
    outer loop
      vertex -0.0506121 -0.0367718 0.5
      vertex -0.0456043 0.0428253 0.5
      vertex -0.0456043 -0.0428253 0.5
    endloop
  endfacet
  facet normal 0 0 -1
    outer loop
      vertex -0.0506121 -0.0367718 0.5
      vertex -0.0506121 0.0367718 0.5
      vertex -0.0456043 0.0428253 0.5
    endloop
  endfacet
  facet normal 0 0 -1
    outer loop
      vertex -0.0548217 -0.0301385 0.5
      vertex -0.0506121 0.0367718 0.5
      vertex -0.0506121 -0.0367718 0.5
    endloop
  endfacet
  facet normal 0 0 -1
    outer loop
      vertex -0.0548217 -0.0301385 0.5
      vertex -0.0548217 0.0301385 0.5
      vertex -0.0506121 0.0367718 0.5
    endloop
  endfacet
  facet normal 0 0 -1
    outer loop
      vertex -0.0581668 -0.0230299 0.5
      vertex -0.0548217 0.0301385 0.5
      vertex -0.0548217 -0.0301385 0.5
    endloop
  endfacet
  facet normal 0 0 -1
    outer loop
      vertex -0.0581668 -0.0230299 0.5
      vertex -0.0581668 0.0230299 0.5
      vertex -0.0548217 0.0301385 0.5
    endloop
  endfacet
  facet normal 0 0 -1
    outer loop
      vertex -0.0605946 -0.015558 0.5
      vertex -0.0581668 0.0230299 0.5
      vertex -0.0581668 -0.0230299 0.5
    endloop
  endfacet
  facet normal 0 0 -1
    outer loop
      vertex -0.0605946 -0.015558 0.5
      vertex -0.0605946 0.015558 0.5
      vertex -0.0581668 0.0230299 0.5
    endloop
  endfacet
  facet normal 0 0 -1
    outer loop
      vertex -0.0620667 -0.00784085 0.5
      vertex -0.0605946 0.015558 0.5
      vertex -0.0605946 -0.015558 0.5
    endloop
  endfacet
  facet normal 0 0 -1
    outer loop
      vertex -0.0620667 -0.00784085 0.5
      vertex -0.0620667 0.00784085 0.5
      vertex -0.0605946 0.015558 0.5
    endloop
  endfacet
  facet normal 0 -0 -1
    outer loop
      vertex -0.0620667 0.00784085 0.5
      vertex -0.0620667 -0.00784085 0.5
      vertex -0.06256 0 0.5
    endloop
  endfacet
  facet normal 0 0 1
    outer loop
      vertex 0.0620667 0.00784085 4.14
      vertex 0.0620667 -0.00784085 4.14
      vertex 0.06256 0 4.14
    endloop
  endfacet
  facet normal 0 0 1
    outer loop
      vertex 0.0605946 0.015558 4.14
      vertex 0.0620667 -0.00784085 4.14
      vertex 0.0620667 0.00784085 4.14
    endloop
  endfacet
  facet normal 0 0 1
    outer loop
      vertex 0.0605946 0.015558 4.14
      vertex 0.0605946 -0.015558 4.14
      vertex 0.0620667 -0.00784085 4.14
    endloop
  endfacet
  facet normal 0 0 1
    outer loop
      vertex 0.0581668 0.0230299 4.14
      vertex 0.0605946 -0.015558 4.14
      vertex 0.0605946 0.015558 4.14
    endloop
  endfacet
  facet normal 0 0 1
    outer loop
      vertex 0.0581668 0.0230299 4.14
      vertex 0.0581668 -0.0230299 4.14
      vertex 0.0605946 -0.015558 4.14
    endloop
  endfacet
  facet normal 0 0 1
    outer loop
      vertex 0.0548217 0.0301385 4.14
      vertex 0.0581668 -0.0230299 4.14
      vertex 0.0581668 0.0230299 4.14
    endloop
  endfacet
  facet normal 0 0 1
    outer loop
      vertex 0.0548217 0.0301385 4.14
      vertex 0.0548217 -0.0301385 4.14
      vertex 0.0581668 -0.0230299 4.14
    endloop
  endfacet
  facet normal 0 0 1
    outer loop
      vertex 0.0506121 0.0367718 4.14
      vertex 0.0548217 -0.0301385 4.14
      vertex 0.0548217 0.0301385 4.14
    endloop
  endfacet
  facet normal 0 0 1
    outer loop
      vertex 0.0506121 0.0367718 4.14
      vertex 0.0506121 -0.0367718 4.14
      vertex 0.0548217 -0.0301385 4.14
    endloop
  endfacet
  facet normal 0 0 1
    outer loop
      vertex 0.0456043 0.0428253 4.14
      vertex 0.0506121 -0.0367718 4.14
      vertex 0.0506121 0.0367718 4.14
    endloop
  endfacet
  facet normal 0 0 1
    outer loop
      vertex 0.0456043 0.0428253 4.14
      vertex 0.0456043 -0.0428253 4.14
      vertex 0.0506121 -0.0367718 4.14
    endloop
  endfacet
  facet normal 0 0 1
    outer loop
      vertex 0.0398772 0.0482033 4.14
      vertex 0.0456043 -0.0428253 4.14
      vertex 0.0456043 0.0428253 4.14
    endloop
  endfacet
  facet normal 0 0 1
    outer loop
      vertex 0.0398772 0.0482033 4.14
      vertex 0.0398772 -0.0482033 4.14
      vertex 0.0456043 -0.0428253 4.14
    endloop
  endfacet
  facet normal 0 0 1
    outer loop
      vertex 0.0335213 0.0528212 4.14
      vertex 0.0398772 -0.0482033 4.14
      vertex 0.0398772 0.0482033 4.14
    endloop
  endfacet
  facet normal 0 0 1
    outer loop
      vertex 0.0335213 0.0528212 4.14
      vertex 0.0335213 -0.0528212 4.14
      vertex 0.0398772 -0.0482033 4.14
    endloop
  endfacet
  facet normal 0 0 1
    outer loop
      vertex 0.0266368 0.056606 4.14
      vertex 0.0335213 -0.0528212 4.14
      vertex 0.0335213 0.0528212 4.14
    endloop
  endfacet
  facet normal 0 0 1
    outer loop
      vertex 0.0266368 0.056606 4.14
      vertex 0.0266368 -0.056606 4.14
      vertex 0.0335213 -0.0528212 4.14
    endloop
  endfacet
  facet normal 0 0 1
    outer loop
      vertex 0.0193321 0.0594981 4.14
      vertex 0.0266368 -0.056606 4.14
      vertex 0.0266368 0.056606 4.14
    endloop
  endfacet
  facet normal 0 0 1
    outer loop
      vertex 0.0193321 0.0594981 4.14
      vertex 0.0193321 -0.0594981 4.14
      vertex 0.0266368 -0.056606 4.14
    endloop
  endfacet
  facet normal 0 0 1
    outer loop
      vertex 0.0117226 0.0614519 4.14
      vertex 0.0193321 -0.0594981 4.14
      vertex 0.0193321 0.0594981 4.14
    endloop
  endfacet
  facet normal 0 0 1
    outer loop
      vertex 0.0117226 0.0614519 4.14
      vertex 0.0117226 -0.0614519 4.14
      vertex 0.0193321 -0.0594981 4.14
    endloop
  endfacet
  facet normal 0 0 1
    outer loop
      vertex 0.00392817 0.0624366 4.14
      vertex 0.0117226 -0.0614519 4.14
      vertex 0.0117226 0.0614519 4.14
    endloop
  endfacet
  facet normal 0 0 1
    outer loop
      vertex 0.00392817 0.0624366 4.14
      vertex 0.00392817 -0.0624366 4.14
      vertex 0.0117226 -0.0614519 4.14
    endloop
  endfacet
  facet normal -0 0 1
    outer loop
      vertex -0.00392817 0.0624366 4.14
      vertex 0.00392817 -0.0624366 4.14
      vertex 0.00392817 0.0624366 4.14
    endloop
  endfacet
  facet normal 0 0 1
    outer loop
      vertex -0.00392817 0.0624366 4.14
      vertex -0.00392817 -0.0624366 4.14
      vertex 0.00392817 -0.0624366 4.14
    endloop
  endfacet
  facet normal -0 0 1
    outer loop
      vertex -0.0117226 0.0614519 4.14
      vertex -0.00392817 -0.0624366 4.14
      vertex -0.00392817 0.0624366 4.14
    endloop
  endfacet
  facet normal 0 0 1
    outer loop
      vertex -0.0117226 0.0614519 4.14
      vertex -0.0117226 -0.0614519 4.14
      vertex -0.00392817 -0.0624366 4.14
    endloop
  endfacet
  facet normal -0 0 1
    outer loop
      vertex -0.0193321 0.0594981 4.14
      vertex -0.0117226 -0.0614519 4.14
      vertex -0.0117226 0.0614519 4.14
    endloop
  endfacet
  facet normal 0 0 1
    outer loop
      vertex -0.0193321 0.0594981 4.14
      vertex -0.0193321 -0.0594981 4.14
      vertex -0.0117226 -0.0614519 4.14
    endloop
  endfacet
  facet normal -0 0 1
    outer loop
      vertex -0.0266368 0.056606 4.14
      vertex -0.0193321 -0.0594981 4.14
      vertex -0.0193321 0.0594981 4.14
    endloop
  endfacet
  facet normal 0 0 1
    outer loop
      vertex -0.0266368 0.056606 4.14
      vertex -0.0266368 -0.056606 4.14
      vertex -0.0193321 -0.0594981 4.14
    endloop
  endfacet
  facet normal -0 0 1
    outer loop
      vertex -0.0335213 0.0528212 4.14
      vertex -0.0266368 -0.056606 4.14
      vertex -0.0266368 0.056606 4.14
    endloop
  endfacet
  facet normal 0 0 1
    outer loop
      vertex -0.0335213 0.0528212 4.14
      vertex -0.0335213 -0.0528212 4.14
      vertex -0.0266368 -0.056606 4.14
    endloop
  endfacet
  facet normal -0 0 1
    outer loop
      vertex -0.0398772 0.0482033 4.14
      vertex -0.0335213 -0.0528212 4.14
      vertex -0.0335213 0.0528212 4.14
    endloop
  endfacet
  facet normal 0 0 1
    outer loop
      vertex -0.0398772 0.0482033 4.14
      vertex -0.0398772 -0.0482033 4.14
      vertex -0.0335213 -0.0528212 4.14
    endloop
  endfacet
  facet normal -0 0 1
    outer loop
      vertex -0.0456043 0.0428253 4.14
      vertex -0.0398772 -0.0482033 4.14
      vertex -0.0398772 0.0482033 4.14
    endloop
  endfacet
  facet normal 0 0 1
    outer loop
      vertex -0.0456043 0.0428253 4.14
      vertex -0.0456043 -0.0428253 4.14
      vertex -0.0398772 -0.0482033 4.14
    endloop
  endfacet
  facet normal -0 0 1
    outer loop
      vertex -0.0506121 0.0367718 4.14
      vertex -0.0456043 -0.0428253 4.14
      vertex -0.0456043 0.0428253 4.14
    endloop
  endfacet
  facet normal 0 0 1
    outer loop
      vertex -0.0506121 0.0367718 4.14
      vertex -0.0506121 -0.0367718 4.14
      vertex -0.0456043 -0.0428253 4.14
    endloop
  endfacet
  facet normal -0 0 1
    outer loop
      vertex -0.0548217 0.0301385 4.14
      vertex -0.0506121 -0.0367718 4.14
      vertex -0.0506121 0.0367718 4.14
    endloop
  endfacet
  facet normal 0 0 1
    outer loop
      vertex -0.0548217 0.0301385 4.14
      vertex -0.0548217 -0.0301385 4.14
      vertex -0.0506121 -0.0367718 4.14
    endloop
  endfacet
  facet normal -0 0 1
    outer loop
      vertex -0.0581668 0.0230299 4.14
      vertex -0.0548217 -0.0301385 4.14
      vertex -0.0548217 0.0301385 4.14
    endloop
  endfacet
  facet normal 0 0 1
    outer loop
      vertex -0.0581668 0.0230299 4.14
      vertex -0.0581668 -0.0230299 4.14
      vertex -0.0548217 -0.0301385 4.14
    endloop
  endfacet
  facet normal -0 0 1
    outer loop
      vertex -0.0605946 0.015558 4.14
      vertex -0.0581668 -0.0230299 4.14
      vertex -0.0581668 0.0230299 4.14
    endloop
  endfacet
  facet normal 0 0 1
    outer loop
      vertex -0.0605946 0.015558 4.14
      vertex -0.0605946 -0.015558 4.14
      vertex -0.0581668 -0.0230299 4.14
    endloop
  endfacet
  facet normal -0 0 1
    outer loop
      vertex -0.0620667 0.00784085 4.14
      vertex -0.0605946 -0.015558 4.14
      vertex -0.0605946 0.015558 4.14
    endloop
  endfacet
  facet normal 0 0 1
    outer loop
      vertex -0.0620667 0.00784085 4.14
      vertex -0.0620667 -0.00784085 4.14
      vertex -0.0605946 -0.015558 4.14
    endloop
  endfacet
  facet normal 0 -0 1
    outer loop
      vertex -0.0620667 -0.00784085 4.14
      vertex -0.0620667 0.00784085 4.14
      vertex -0.06256 0 4.14
    endloop
  endfacet
endsolid OpenSCAD_Model
